<svg width="215" height="30" viewBox="0 0 215 30" fill="none" xmlns="http://www.w3.org/2000/svg">
<path fill-rule="evenodd" clip-rule="evenodd" d="M55.2492 28.4043C55.9939 29.1489 57.1109 29.5213 58.6003 29.5213H61.3928V25.9707H58.5205V0H54.1721V25.2128C54.1721 26.5691 54.5311 27.633 55.2492 28.4043ZM8.26951 14.7038V18.8298C8.26951 21.1968 8.72164 22.9787 9.62589 24.1755C10.5301 25.3723 12.0727 25.9707 14.2536 25.9707C16.4344 25.9707 17.977 25.3723 18.8812 24.1755C19.7855 22.9787 20.2376 21.1968 20.2376 18.8298V14.7038L8.26951 14.7038ZM3.84132 14.7038V18.1117C3.84132 20.1596 4.02749 21.9282 4.39983 23.4176C4.77217 24.9069 5.37057 26.1436 6.19504 27.1277C7.01951 28.0851 8.08334 28.8032 9.38653 29.2819C10.7163 29.7606 12.3387 30 14.2536 30C16.1684 30 17.7775 29.7606 19.0807 29.2819C20.4105 28.8032 21.4876 28.0851 22.3121 27.1277C23.1365 26.1436 23.7349 24.9069 24.1073 23.4176C24.4796 21.9282 24.6658 20.1596 24.6658 18.1117V14.7038H28.4954L28.4954 11.8543H24.6658V1.67553H20.2376V11.8543L8.26951 11.8543V1.67553H3.84132V11.8543H0V14.7038H3.84132ZM31.0307 29.5213V8.77659H35.3791V12.2074H35.5786C36.0307 11.0904 36.7089 10.1596 37.6131 9.41489C38.544 8.67021 39.8073 8.29787 41.403 8.29787C43.5307 8.29787 45.1796 9.00266 46.3498 10.4122C47.5466 11.7952 48.145 13.7766 48.145 16.3564V29.5213H43.7966V16.9149C43.7966 13.6702 42.4935 12.0479 39.8871 12.0479C39.3286 12.0479 38.77 12.1277 38.2115 12.2872C37.6796 12.4202 37.2009 12.633 36.7754 12.9255C36.3498 13.2181 36.0041 13.5904 35.7381 14.0426C35.4988 14.4947 35.3791 15.0266 35.3791 15.6383V29.5213H31.0307ZM73.6863 30C72.2501 30 70.9336 29.7473 69.7368 29.242C68.5666 28.7367 67.5693 28.0186 66.7448 27.0878C65.9203 26.1303 65.2821 24.9867 64.8299 23.6569C64.3778 22.3005 64.1517 20.7979 64.1517 19.1489C64.1517 17.5 64.3778 16.0106 64.8299 14.6809C65.2821 13.3245 65.9203 12.1809 66.7448 11.25C67.5693 10.2926 68.5666 9.56117 69.7368 9.05585C70.9336 8.55053 72.2501 8.29787 73.6863 8.29787C75.1225 8.29787 76.4257 8.55053 77.5959 9.05585C78.7927 9.56117 79.8033 10.2926 80.6278 11.25C81.4523 12.1809 82.0906 13.3245 82.5427 14.6809C82.9948 16.0106 83.2209 17.5 83.2209 19.1489C83.2209 20.7979 82.9948 22.3005 82.5427 23.6569C82.0906 24.9867 81.4523 26.1303 80.6278 27.0878C79.8033 28.0186 78.7927 28.7367 77.5959 29.242C76.4257 29.7473 75.1225 30 73.6863 30ZM73.6863 26.4096C75.1757 26.4096 76.3725 25.9574 77.2767 25.0532C78.181 24.1223 78.6331 22.7394 78.6331 20.9043V17.3936C78.6331 15.5585 78.181 14.1888 77.2767 13.2846C76.3725 12.3537 75.1757 11.8883 73.6863 11.8883C72.1969 11.8883 71.0001 12.3537 70.0959 13.2846C69.1916 14.1888 68.7395 15.5585 68.7395 17.3936V20.9043C68.7395 22.7394 69.1916 24.1223 70.0959 25.0532C71.0001 25.9574 72.1969 26.4096 73.6863 26.4096ZM92.0953 29.242C93.2655 29.7473 94.5953 30 96.0847 30C98.0794 30 99.7682 29.5479 101.151 28.6436C102.534 27.7394 103.571 26.4362 104.263 24.734L100.952 22.9787C100.5 24.016 99.8879 24.8537 99.1166 25.492C98.3719 26.1037 97.3613 26.4096 96.0847 26.4096C94.489 26.4096 93.2788 25.9176 92.4544 24.9335C91.6565 23.9229 91.2576 22.6197 91.2576 21.0239V17.3138C91.2576 15.7181 91.6565 14.4282 92.4544 13.4441C93.2788 12.4335 94.489 11.9282 96.0847 11.9282C97.2815 11.9282 98.239 12.2207 98.957 12.8059C99.7017 13.3644 100.22 14.1223 100.513 15.0798L104.103 13.4043C103.492 11.8617 102.521 10.625 101.191 9.69415C99.8613 8.7633 98.1592 8.29787 96.0847 8.29787C94.5953 8.29787 93.2655 8.55053 92.0953 9.05585C90.9251 9.56117 89.9411 10.2926 89.1432 11.25C88.3453 12.1809 87.7336 13.3245 87.3081 14.6809C86.8826 16.0106 86.6698 17.5 86.6698 19.1489C86.6698 20.7979 86.8826 22.3005 87.3081 23.6569C87.7336 24.9867 88.3453 26.1303 89.1432 27.0878C89.9411 28.0186 90.9251 28.7367 92.0953 29.242ZM108.402 0H112.751V18.1117H112.95L115.823 14.4016L120.809 8.77659H125.876L118.615 16.7952L126.754 29.5213H121.567L115.623 19.6277L112.751 22.7394V29.5213H108.402V0ZM149.82 1.67553H139.966V29.5213H149.82C151.602 29.5213 153.211 29.2287 154.647 28.6436C156.11 28.0585 157.347 27.1941 158.357 26.0505C159.395 24.8803 160.192 23.4309 160.751 21.7021C161.31 19.9468 161.589 17.9122 161.589 15.5984C161.589 13.2846 161.31 11.2633 160.751 9.53457C160.192 7.77925 159.395 6.32979 158.357 5.18617C157.347 4.01596 156.11 3.1383 154.647 2.55319C153.211 1.96808 151.602 1.67553 149.82 1.67553ZM154.847 23.5771C153.57 24.8803 151.895 25.5319 149.82 25.5319H144.474V5.66489H149.82C151.895 5.66489 153.57 6.31649 154.847 7.61968C156.123 8.92287 156.762 10.8378 156.762 13.3644V17.8324C156.762 20.359 156.123 22.2739 154.847 23.5771ZM183.657 29.5213L181.144 21.9814H170.732L168.298 29.5213H163.71L173.205 1.67553H178.87L188.365 29.5213H183.657ZM176.037 5.82447H175.838L171.809 18.1117H180.027L176.037 5.82447ZM197.645 29.0824C199.134 29.6941 200.783 30 202.592 30C204.4 30 206.036 29.6941 207.499 29.0824C208.988 28.4441 210.251 27.5266 211.288 26.3298C212.352 25.1064 213.163 23.6037 213.722 21.8218C214.307 20.0133 214.6 17.9388 214.6 15.5984C214.6 13.258 214.307 11.1968 213.722 9.41489C213.163 7.60638 212.352 6.10372 211.288 4.90691C210.251 3.68351 208.988 2.76596 207.499 2.15425C206.036 1.51596 204.4 1.19681 202.592 1.19681C200.783 1.19681 199.134 1.51596 197.645 2.15425C196.182 2.76596 194.919 3.68351 193.855 4.90691C192.818 6.10372 192.006 7.60638 191.421 9.41489C190.863 11.1968 190.584 13.258 190.584 15.5984C190.584 17.9388 190.863 20.0133 191.421 21.8218C192.006 23.6037 192.818 25.1064 193.855 26.3298C194.919 27.5266 196.182 28.4441 197.645 29.0824ZM205.504 25.4122C204.626 25.7846 203.655 25.9707 202.592 25.9707C201.501 25.9707 200.517 25.7846 199.639 25.4122C198.762 25.0399 198.004 24.508 197.366 23.8165C196.754 23.0984 196.275 22.234 195.929 21.2234C195.584 20.2128 195.411 19.0691 195.411 17.7926V13.4043C195.411 12.1277 195.584 10.984 195.929 9.9734C196.275 8.96277 196.754 8.1117 197.366 7.42021C198.004 6.70213 198.762 6.15691 199.639 5.78457C200.517 5.41223 201.501 5.22606 202.592 5.22606C203.655 5.22606 204.626 5.41223 205.504 5.78457C206.408 6.15691 207.166 6.70213 207.778 7.42021C208.416 8.1117 208.908 8.96277 209.254 9.9734C209.6 10.984 209.772 12.1277 209.772 13.4043V17.7926C209.772 19.0691 209.6 20.2128 209.254 21.2234C208.908 22.234 208.416 23.0984 207.778 23.8165C207.166 24.508 206.408 25.0399 205.504 25.4122Z" fill="#fff"/>
</svg>
